<svg width="4" height="7" viewBox="0 0 4 7" fill="none" xmlns="http://www.w3.org/2000/svg">
<rect width="4" height="7" fill="#F5F5F5"/>
<g id="Nicole&#39;s Workspace">
<path d="M-9227 -1900C-9227 -1901.1 -9226.1 -1902 -9225 -1902H19550C19551.1 -1902 19552 -1901.1 19552 -1900V8866C19552 8867.1 19551.1 8868 19550 8868H-9225C-9226.1 8868 -9227 8867.1 -9227 8866V-1900Z" fill="#A6A6A6"/>
<path d="M-9225 -1901H19550V-1903H-9225V-1901ZM19551 -1900V8866H19553V-1900H19551ZM19550 8867H-9225V8869H19550V8867ZM-9226 8866V-1900H-9228V8866H-9226ZM-9225 8867C-9225.55 8867 -9226 8866.55 -9226 8866H-9228C-9228 8867.66 -9226.66 8869 -9225 8869V8867ZM19551 8866C19551 8866.55 19550.6 8867 19550 8867V8869C19551.7 8869 19553 8867.66 19553 8866H19551ZM19550 -1901C19550.6 -1901 19551 -1900.55 19551 -1900H19553C19553 -1901.66 19551.7 -1903 19550 -1903V-1901ZM-9225 -1903C-9226.66 -1903 -9228 -1901.66 -9228 -1900H-9226C-9226 -1900.55 -9225.55 -1901 -9225 -1901V-1903Z" fill="black" fill-opacity="0.1"/>
<g id="DEI Resources Expanded">
<rect width="1515" height="10524" transform="translate(-942 -1802)" fill="white"/>
<g id="Dropdowns">
<rect x="-780.342" y="-23.342" width="1200.68" height="53.7389" fill="#003A70"/>
<rect x="-780.342" y="-23.342" width="1200.68" height="53.7389" stroke="white" stroke-width="1.31592"/>
<path id="Vector" d="M0.763672 6.81738L3.39552 3.52757L0.763672 0.237761L0.763672 6.81738Z" fill="#FFFEFE"/>
</g>
</g>
</g>
</svg>
